<svg width="25" height="25" viewBox="0 0 25 25" fill="none" xmlns="http://www.w3.org/2000/svg">
<g clip-path="url(#clip0_3012_184)">
<path d="M15.8398 1.11135C15.6616 1.11843 15.4896 1.15027 15.3104 1.1945L3.19402 4.12409C1.76081 4.4726 0.864156 5.90732 1.21622 7.33055L2.91504 14.214C3.01799 14.6241 3.21843 15.0036 3.49958 15.321C3.78073 15.6383 4.1344 15.8842 4.53098 16.038V14.3794C4.53098 11.9408 6.53017 9.95674 8.98749 9.95674H20.2126L18.5414 3.12898C18.3936 2.53548 18.044 2.0107 17.5518 1.64316C17.0595 1.27562 16.4545 1.08779 15.8389 1.11135H15.8398ZM16.9254 4.92637L17.6501 7.93911L14.6419 8.65736L13.8897 5.67204L16.9254 4.92637ZM8.98749 11.7258C7.5115 11.7258 6.31358 12.9146 6.31358 14.3794V21.4558C6.31358 22.9206 7.5115 24.1094 8.98749 24.1094H21.4657C22.9417 24.1094 24.1396 22.9206 24.1396 21.4558V14.3794C24.1396 12.9146 22.9417 11.7258 21.4657 11.7258H8.98749ZM8.98749 13.1358H21.4657C22.1529 13.1358 22.7189 13.6975 22.7189 14.3794V15.264H7.73432V14.3794C7.73432 13.6975 8.3003 13.1358 8.98749 13.1358ZM7.73432 17.9176H22.7189V21.4558C22.7189 22.1377 22.1529 22.6994 21.4657 22.6994H8.98749C8.65571 22.6976 8.33805 22.5659 8.10344 22.3331C7.86882 22.1003 7.73619 21.785 7.73432 21.4558V17.9176Z" fill="#0B0B0B"/>
</g>
<defs>
<clipPath id="clip0_3012_184">
<rect width="24" height="24" fill="white" transform="translate(0.639648 0.609375)"/>
</clipPath>
</defs>
</svg>
