<svg width="17" height="17" viewBox="0 0 17 17" fill="none" xmlns="http://www.w3.org/2000/svg">
<path fill-rule="evenodd" clip-rule="evenodd" d="M16.1396 8.60938C16.1396 13.0277 12.5579 16.6094 8.13965 16.6094C3.72137 16.6094 0.139648 13.0277 0.139648 8.60938C0.139648 4.1911 3.72137 0.609375 8.13965 0.609375C12.5579 0.609375 16.1396 4.1911 16.1396 8.60938ZM9.02903 5.0563C9.02903 5.54722 8.63106 5.94519 8.14014 5.94519C7.64922 5.94519 7.25126 5.54722 7.25126 5.0563C7.25126 4.56538 7.64922 4.16741 8.14014 4.16741C8.63106 4.16741 9.02903 4.56538 9.02903 5.0563ZM8.63965 13.0495V7.71652H7.63965V13.0495H8.63965Z" fill="#898989"/>
</svg>
