<svg width="25" height="25" viewBox="0 0 25 25" fill="none" xmlns="http://www.w3.org/2000/svg">
<path d="M12.2843 2.28931L12.2843 1.37951H12.2843V2.28931ZM19.2843 9.28931L20.1941 9.28934V9.28931H19.2843ZM12.6466 18.1116L13.063 18.9205L13.063 18.9205L12.6466 18.1116ZM11.922 18.1116L11.5057 18.9205L11.5057 18.9205L11.922 18.1116ZM5.28432 9.28931L4.37452 9.28931L4.37452 9.28934L5.28432 9.28931ZM12.2843 6.28931L12.2844 5.37951H12.2843V6.28931ZM9.28432 9.28931L8.37452 9.28931L8.37452 9.28938L9.28432 9.28931ZM12.2843 12.2893L12.2843 13.1991L12.2844 13.1991L12.2843 12.2893ZM15.2843 9.28931L16.1941 9.28938V9.28931H15.2843ZM12.2843 2.28931L12.2843 3.1991C15.6478 3.19916 18.3745 5.92584 18.3745 9.28931H19.2843H20.1941C20.1941 4.92087 16.6527 1.37959 12.2843 1.37951L12.2843 2.28931ZM19.2843 9.28931L18.3745 9.28928C18.3745 11.4855 17.2471 13.2887 15.8598 14.6769C14.4738 16.0639 12.9069 16.9544 12.2303 17.3026L12.6466 18.1116L13.063 18.9205C13.8208 18.5305 15.5727 17.5384 17.1469 15.9631C18.7198 14.3891 20.194 12.1503 20.1941 9.28934L19.2843 9.28931ZM12.6466 18.1116L12.2303 17.3026C12.2419 17.2967 12.2608 17.2907 12.2843 17.2907C12.3078 17.2907 12.3268 17.2967 12.3383 17.3026L11.922 18.1116L11.5057 18.9205C11.9974 19.1736 12.5713 19.1736 13.063 18.9205L12.6466 18.1116ZM11.922 18.1116L12.3384 17.3026C11.6618 16.9544 10.095 16.0641 8.70894 14.6771C7.32165 13.2889 6.19418 11.4856 6.19411 9.28928L5.28432 9.28931L4.37452 9.28934C4.37462 12.1505 5.84891 14.3893 7.42188 15.9633C8.99607 17.5385 10.748 18.5306 11.5057 18.9205L11.922 18.1116ZM5.28432 9.28931H6.19411C6.19411 5.92578 8.92079 3.1991 12.2843 3.1991V2.28931V1.37951C7.91586 1.37951 4.37452 4.92085 4.37452 9.28931H5.28432ZM12.2843 6.28931V5.37951C10.125 5.37951 8.37452 7.12999 8.37452 9.28931H9.28432H10.1941C10.1941 8.13492 11.1299 7.1991 12.2843 7.1991V6.28931ZM9.28432 9.28931L8.37452 9.28938C8.37469 11.4485 10.125 13.1991 12.2843 13.1991V12.2893V11.3795C11.1301 11.3795 10.1942 10.4436 10.1941 9.28924L9.28432 9.28931ZM12.2843 12.2893L12.2844 13.1991C14.4435 13.199 16.1939 11.4485 16.1941 9.28938L15.2843 9.28931L14.3745 9.28924C14.3744 10.4436 13.4385 11.3795 12.2843 11.3795L12.2843 12.2893ZM15.2843 9.28931H16.1941C16.1941 7.12999 14.4435 5.37961 12.2844 5.37951L12.2843 6.28931L12.2843 7.1991C13.4387 7.19915 14.3745 8.13501 14.3745 9.28931H15.2843Z" fill="#0B0B0B"/>
<path d="M20.0784 17.7891C20.8683 18.2451 21.2842 18.7625 21.2842 19.2891C21.2842 19.8157 20.8683 20.333 20.0784 20.7891C19.2885 21.2451 18.1524 21.6238 16.7842 21.8871C15.416 22.1504 13.864 22.2891 12.2842 22.2891C10.7044 22.2891 9.15235 22.1504 7.78418 21.8871C6.41601 21.6238 5.27987 21.2451 4.48995 20.7891C3.70004 20.333 3.28418 19.8157 3.28418 19.2891C3.28418 18.7625 3.70004 18.2451 4.48995 17.7891" stroke="#0B0B0B" stroke-width="1.81959" stroke-linecap="round"/>
</svg>
