<svg width="25" height="25" viewBox="0 0 25 25" fill="none" xmlns="http://www.w3.org/2000/svg">
<path d="M22.9189 6.96094V9.38094C22.9189 10.9609 21.9189 11.9609 20.3389 11.9609H16.9189V4.97094C16.9189 3.86094 17.8289 2.96094 18.9389 2.96094C20.0289 2.97094 21.0289 3.41094 21.7489 4.13094C22.4689 4.86094 22.9189 5.86094 22.9189 6.96094Z" stroke="#0B0B0B" stroke-width="1.5" stroke-miterlimit="10" stroke-linecap="round" stroke-linejoin="round"/>
<path d="M2.91895 7.96094V21.9609C2.91895 22.7909 3.85895 23.2609 4.51895 22.7609L6.22895 21.4809C6.62895 21.1809 7.18895 21.2209 7.54895 21.5809L9.20895 23.2509C9.59895 23.6409 10.2389 23.6409 10.6289 23.2509L12.3089 21.5709C12.6589 21.2209 13.2189 21.1809 13.6089 21.4809L15.3189 22.7609C15.9789 23.2509 16.9189 22.7809 16.9189 21.9609V4.96094C16.9189 3.86094 17.8189 2.96094 18.9189 2.96094H7.91895H6.91895C3.91895 2.96094 2.91895 4.75094 2.91895 6.96094V7.96094Z" stroke="#0B0B0B" stroke-width="1.5" stroke-miterlimit="10" stroke-linecap="round" stroke-linejoin="round"/>
<path d="M9.91895 13.9709H12.9189" stroke="#0B0B0B" stroke-width="1.5" stroke-linecap="round" stroke-linejoin="round"/>
<path d="M9.91895 9.97095H12.9189" stroke="#0B0B0B" stroke-width="1.5" stroke-linecap="round" stroke-linejoin="round"/>
<path d="M6.91455 13.9609H6.92353" stroke="#0B0B0B" stroke-width="2" stroke-linecap="round" stroke-linejoin="round"/>
<path d="M6.91455 9.96094H6.92353" stroke="#0B0B0B" stroke-width="2" stroke-linecap="round" stroke-linejoin="round"/>
</svg>
