<svg width="25" height="25" viewBox="0 0 25 25" fill="none" xmlns="http://www.w3.org/2000/svg">
<g clip-path="url(#clip0_2001_760)">
<path d="M12.2838 23.4406C18.4418 23.4406 23.4338 18.4486 23.4338 12.2906C23.4338 6.13265 18.4418 1.14062 12.2838 1.14062C6.12581 1.14062 1.13379 6.13265 1.13379 12.2906C1.13379 18.4486 6.12581 23.4406 12.2838 23.4406Z" stroke="#0B0B0B" stroke-width="1.7"/>
<path fill-rule="evenodd" clip-rule="evenodd" d="M18.0082 8.50192C18.3465 8.81008 18.3781 9.34317 18.0792 9.69407L11.805 17.0044C11.7326 17.0889 11.6444 17.1575 11.5458 17.2062C11.4472 17.2549 11.3401 17.2828 11.2308 17.2882C11.1216 17.2935 11.0124 17.2762 10.9097 17.2373C10.8071 17.1985 10.713 17.1388 10.6331 17.0618L6.54128 13.1254C6.38387 12.9725 6.29158 12.7616 6.28461 12.5388C6.27763 12.316 6.35652 12.0994 6.50404 11.9363C6.65156 11.7733 6.8557 11.6771 7.07185 11.6687C7.288 11.6603 7.49857 11.7405 7.65753 11.8917L11.1383 15.2319L16.856 8.5739C16.9273 8.49078 17.0138 8.42297 17.1105 8.37436C17.2073 8.32574 17.3124 8.29728 17.4198 8.29059C17.5272 8.28391 17.6349 8.29913 17.7366 8.3354C17.8383 8.37166 17.9321 8.42825 18.0126 8.50192H18.0082Z" fill="#0B0B0B"/>
</g>
<defs>
<clipPath id="clip0_2001_760">
<rect width="24" height="24" fill="white" transform="translate(0.28418 0.289062)"/>
</clipPath>
</defs>
</svg>
